<?xml version="1.0" encoding="utf-8"?>
<!-- Generator: Adobe Illustrator 16.0.0, SVG Export Plug-In . SVG Version: 6.00 Build 0)  -->
<!DOCTYPE svg PUBLIC "-//W3C//DTD SVG 1.1//EN" "http://www.w3.org/Graphics/SVG/1.1/DTD/svg11.dtd">
<svg version="1.1" id="Layer_1" xmlns="http://www.w3.org/2000/svg" xmlns:xlink="http://www.w3.org/1999/xlink" x="0px" y="0px"
	 width="817px" height="290px" viewBox="0 0 817 290" enable-background="new 0 0 817 290" xml:space="preserve">
<g>
	<g>
		<radialGradient id="SVGID_1_" cx="8.5347" cy="23.0259" r="416.6692" gradientUnits="userSpaceOnUse">
			<stop  offset="0" style="stop-color:#FFFFFF"/>
			<stop  offset="0.5" style="stop-color:#18A058"/>
			<stop  offset="1" style="stop-color:#18A058"/>
		</radialGradient>
		<path fill-rule="evenodd" clip-rule="evenodd" fill="url(#SVGID_1_)" d="M256.371,108.924c12.008-1.181,23.867-0.542,35.627,1.524
			c-25.44-17.959-54.964-28.49-90.738-27.211c-9.007-8.709-20.767-15.254-35.676-19.337c9.203,4.724,17.271,10.48,24.111,17.172
			l-11.808-3.247c6.149,4.773,11.66,10.236,16.68,16.239c-5.953-3.986-12.549-7.283-19.979-8.318
			c-15.548,7.923-40.939,9.745-44.483,22.39c-10.531,37.201-31.197,39.907-54.176,48.862
			c38.332,46.057,107.763-40.743,171.191-0.787c-16.583-0.787-29.722,3.396-40.595,10.924c35.575,3.051,56.489,22.783,66.675,54.672
			c-9.054-7.777-19.142-13.388-31.05-15.404c16.927,23.47,14.566,45.71,1.182,62.197c28.194-7.331,49.553-27.111,61.657-52.161
			c8.364-17.174,12.348-36.854,11.265-56.686C305.578,135.249,279.401,118.322,256.371,108.924z M147.428,124.867l-16.238,8.316
			l5.757-13.287l0.884,2.953l19.042-7.48L147.428,124.867z"/>
		<radialGradient id="SVGID_2_" cx="79.7012" cy="35.1523" r="138.2409" gradientUnits="userSpaceOnUse">
			<stop  offset="0" style="stop-color:#FFFFFF"/>
			<stop  offset="0.5" style="stop-color:#18A058"/>
			<stop  offset="1" style="stop-color:#18A058"/>
		</radialGradient>
		<path fill-rule="evenodd" clip-rule="evenodd" fill="url(#SVGID_2_)" d="M136.158,79.3c7.185,0.05,15.354,2.461,20.272,5.61
			l-9.153-0.049c3.839,2.067,7.038,4.577,9.745,7.381c6.15-1.919,12.398-3.887,17.566-6.496
			c-13.385-6.544-27.016-9.742-40.891-9.447L136.158,79.3z"/>
		<linearGradient id="SVGID_3_" gradientUnits="userSpaceOnUse" x1="343.4175" y1="215.9136" x2="251.3429" y2="108.3744">
			<stop  offset="0" style="stop-color:#0C7A43"/>
			<stop  offset="1" style="stop-color:#0C7A43;stop-opacity:0"/>
		</linearGradient>
		<path fill-rule="evenodd" clip-rule="evenodd" fill="url(#SVGID_3_)" d="M256.371,108.924c12.008-1.181,23.867-0.542,35.627,1.524
			c-25.44-17.959-54.964-28.49-90.738-27.211c8.708,8.415,14.811,18.896,18.648,31.148c30.41,7.184,57.032,22.537,78.979,48.126
			c-13.484-6.004-25.98-8.71-37.595-8.513c24.85,15.548,39.121,32.23,43.697,62.442c8.364-17.174,12.348-36.854,11.265-56.686
			C305.578,135.249,279.401,118.322,256.371,108.924z"/>
		<linearGradient id="SVGID_4_" gradientUnits="userSpaceOnUse" x1="374.3823" y1="159.79" x2="94.8909" y2="159.7901">
			<stop  offset="0" style="stop-color:#EF8200"/>
			<stop  offset="1" style="stop-color:#EF8200;stop-opacity:0"/>
		</linearGradient>
		<path fill-rule="evenodd" clip-rule="evenodd" fill="url(#SVGID_4_)" d="M75.93,156.998
			c29.032,43.992,90.345-11.957,145.948,2.412c7.429-2.461,15.794-3.642,25.243-3.199
			C183.693,116.255,114.262,203.055,75.93,156.998z"/>
		<linearGradient id="SVGID_5_" gradientUnits="userSpaceOnUse" x1="337.4243" y1="273.7324" x2="194.0373" y2="151.9588">
			<stop  offset="0" style="stop-color:#EF8200"/>
			<stop  offset="1" style="stop-color:#EF8200;stop-opacity:0"/>
		</linearGradient>
		<path fill-rule="evenodd" clip-rule="evenodd" fill="url(#SVGID_5_)" d="M225.912,170.875c-6.497,1.87-12.35,4.773-17.666,8.464
			c29.675,2.508,53.393,19.338,64.955,42.468C265.032,196.217,249.975,178.453,225.912,170.875z"/>
		<linearGradient id="SVGID_6_" gradientUnits="userSpaceOnUse" x1="243.1382" y1="323.5112" x2="243.1382" y2="198.0008">
			<stop  offset="0" style="stop-color:#EF8200"/>
			<stop  offset="1" style="stop-color:#EF8200;stop-opacity:0"/>
		</linearGradient>
		<path fill-rule="evenodd" clip-rule="evenodd" fill="url(#SVGID_6_)" d="M232.161,215.356
			c15.108,16.785,18.501,34.153,13.926,49.505c8.709-12.844,11.021-28.687,3.495-45.665
			C244.069,217.032,238.314,215.703,232.161,215.356z"/>
	</g>
	<g>
		<radialGradient id="SVGID_7_" cx="-149.6133" cy="-45.5039" r="494.7037" gradientUnits="userSpaceOnUse">
			<stop  offset="0" style="stop-color:#FFFFFF"/>
			<stop  offset="0.5" style="stop-color:#18A058"/>
			<stop  offset="1" style="stop-color:#0C7A43"/>
		</radialGradient>
		<path fill-rule="evenodd" clip-rule="evenodd" fill="url(#SVGID_7_)" d="M236.788,55.188
			c-35.134-14.17-71.448-23.914-88.623-49.404c-3.887,16.337-2.017,31.394,7.184,44.926C102.156,38.311,49.799,55.583,4.873,11.05
			c0.05,70.319,19.044,115.784,57.377,153.184c58.261,56.833-14.764,63.574-38.825,16.336
			c18.304,70.221,105.45,124.396,168.781,96.445c40.939-18.059,28.441-72.629-9.695-85.523
			c-52.552-17.763-87.979,1.576-106.581-34.494c22.979-8.956,43.645-11.661,54.176-48.862c1.822-6.594,9.595-10.236,18.797-13.335
			l-15.205-18.502c13.875-0.295,27.506,2.903,40.891,9.447l-9.005-21.846c14.909,4.083,26.669,10.628,35.676,19.337
			c35.773-1.279,65.298,9.252,90.738,27.211c-11.76-2.067-23.619-2.706-35.627-1.524c23.031,9.398,49.208,26.325,59.884,50.831
			C313.994,118.42,289.734,76.544,236.788,55.188z"/>
		<g>
			<linearGradient id="SVGID_8_" gradientUnits="userSpaceOnUse" x1="-0.2588" y1="-55.2661" x2="91.1158" y2="52.9775">
				<stop  offset="0" style="stop-color:#FFFFFF"/>
				<stop  offset="1" style="stop-color:#FFFFFF;stop-opacity:0"/>
			</linearGradient>
			<path fill-rule="evenodd" clip-rule="evenodd" fill="url(#SVGID_8_)" d="M83.655,96.227
				c26.227-4.231,68.348-46.648,82.864-42.415c-56.98-18.256-113.57,4.92-161.646-42.762C21.948,66.21,45.568,102.378,83.655,96.227
				z"/>
			<linearGradient id="SVGID_9_" gradientUnits="userSpaceOnUse" x1="111.0571" y1="-32.5889" x2="189.0764" y2="39.8067">
				<stop  offset="0" style="stop-color:#FFFFFF"/>
				<stop  offset="1" style="stop-color:#FFFFFF;stop-opacity:0"/>
			</linearGradient>
			<path fill-rule="evenodd" clip-rule="evenodd" fill="url(#SVGID_9_)" d="M148.165,5.785
				c4.084,39.809,44.434,51.274,74.399,43.844C192.206,38.114,163.026,27.83,148.165,5.785z"/>
		</g>
		<g>
			<linearGradient id="SVGID_10_" gradientUnits="userSpaceOnUse" x1="156.9927" y1="155.3428" x2="156.9927" y2="265.3893">
				<stop  offset="0" style="stop-color:#0C7A43"/>
				<stop  offset="1" style="stop-color:#0C7A43;stop-opacity:0"/>
			</linearGradient>
			<path fill-rule="evenodd" clip-rule="evenodd" fill="url(#SVGID_10_)" d="M182.511,191.492
				c-22.046-7.479-41.088-8.364-57.129-9.594c95.855,13.975,56.244,115.146-28.983,86.803c30.754,16.385,65.938,21.504,95.808,8.314
				C233.146,258.956,220.647,204.385,182.511,191.492z"/>
			<linearGradient id="SVGID_11_" gradientUnits="userSpaceOnUse" x1="262.0981" y1="110.9785" x2="47.0134" y2="110.9785">
				<stop  offset="0" style="stop-color:#0C7A43"/>
				<stop  offset="1" style="stop-color:#0C7A43;stop-opacity:0"/>
			</linearGradient>
			<path fill-rule="evenodd" clip-rule="evenodd" fill="url(#SVGID_11_)" d="M142.555,87.076l6.348,7.725
				c-9.202,3.099-16.975,6.741-18.797,13.335c-9.841,34.888-28.639,39.416-49.944,47.289c-1.821-2.363-3.545-5.069-5.168-8.168
				c23.027-8.957,43.697-11.662,54.176-48.863C130.646,93.177,135.863,89.782,142.555,87.076z M132.813,66.555l8.07,9.892
				c11.416,0.737,22.636,3.888,33.706,9.299l-4.771-11.514C157.663,68.918,145.36,66.26,132.813,66.555z"/>
			<linearGradient id="SVGID_12_" gradientUnits="userSpaceOnUse" x1="19.0776" y1="77.4307" x2="331.1592" y2="77.4307">
				<stop  offset="0" style="stop-color:#0C7A43"/>
				<stop  offset="1" style="stop-color:#0C7A43;stop-opacity:0"/>
			</linearGradient>
			<path fill-rule="evenodd" clip-rule="evenodd" fill="url(#SVGID_12_)" d="M291.112,100.706
				c-25.489-17.96-54.962-28.491-90.786-27.212c-9.005-8.708-20.768-15.253-35.675-19.338l4.427,10.776
				c13.284,4.133,23.914,10.284,32.181,18.305c27.063-0.983,50.535,4.823,71.399,15.451
				C278.81,98.935,284.961,99.623,291.112,100.706z"/>
			<linearGradient id="SVGID_13_" gradientUnits="userSpaceOnUse" x1="210.436" y1="134.0435" x2="310.6013" y2="134.0435">
				<stop  offset="0" style="stop-color:#0C7A43"/>
				<stop  offset="1" style="stop-color:#0C7A43;stop-opacity:0"/>
			</linearGradient>
			<path fill-rule="evenodd" clip-rule="evenodd" fill="url(#SVGID_13_)" d="M274.431,108.48c-5.954-0.295-12.006-0.147-18.06,0.444
				c23.031,9.398,49.208,26.325,59.884,50.831C314.976,136.726,293.375,119.355,274.431,108.48z"/>
			<linearGradient id="SVGID_14_" gradientUnits="userSpaceOnUse" x1="11.6919" y1="165.5913" x2="122.0409" y2="235.8781">
				<stop  offset="0" style="stop-color:#0C7A43"/>
				<stop  offset="1" style="stop-color:#0C7A43;stop-opacity:0"/>
			</linearGradient>
			<path fill-rule="evenodd" clip-rule="evenodd" fill="url(#SVGID_14_)" d="M62.25,164.233
				c58.261,56.833-14.764,63.574-38.825,16.336C60.919,272.98,158.204,249.358,62.25,164.233z"/>
		</g>
	</g>
</g>
<g>
	<path fill="#179F57" d="M547.02,243.204h-26.176c-6.29,0-9.739-4.475-9.739-10.169v-46.168c0-9.559-5.479-15.458-14.204-15.458
		c-6.898,0-13.189,4.068-16.03,10.983v41.694c0,6.712,0.812,10.373,1.624,14.034c0.608,2.644-0.406,5.084-2.639,5.084h-26.175
		c-6.291,0-9.74-4.475-9.74-10.169v-46.168c0-9.559-5.275-15.458-14.204-15.458c-6.696,0-12.783,3.865-15.624,10.373v57.354
		c0,2.238-1.826,4.068-3.855,4.068h-29.422c-2.232,0-3.855-1.83-3.855-4.068v-95.794c0-2.034,1.623-3.864,3.652-3.864h29.625
		c2.435,0,3.855,1.424,3.855,3.864v9.559c6.696-7.932,16.233-14.847,30.842-14.847c14.407,0,26.581,6.915,32.263,20.338
		c6.493-10.169,17.045-20.338,34.495-20.338c20.494,0,36.321,13.627,36.321,39.457v46.575c0,6.712,0.812,10.373,1.623,14.034
		C550.267,240.763,549.252,243.204,547.02,243.204z"/>
	<path fill="#179F57" d="M674.445,143.545l-53.163,136.268c-0.812,2.237-1.623,4.067-3.855,4.067h-29.219
		c-2.841,0-3.652-1.83-2.841-4.067l16.029-40.677l-37.133-95.59c-0.608-2.237,0-4.068,2.841-4.068h29.22
		c2.231,0,3.044,1.831,3.855,4.068l18.668,53.083h1.014l18.668-53.083c0.812-2.237,1.826-4.068,3.855-4.068h29.422
		C674.445,139.478,675.257,141.308,674.445,143.545z"/>
	<path fill="#179F57" d="M808.771,143.342v95.998c0,2.237-1.826,3.864-3.855,3.864h-29.422c-2.232,0-3.855-1.627-3.855-3.864
		v-66.507h-35.713v66.507c0,2.44-1.42,3.864-3.855,3.864h-29.219c-2.638,0-3.855-1.424-3.855-3.864v-66.507h-11.16
		c-1.623,0-3.044-1.424-3.044-3.051v-27.457c0-1.627,1.421-2.847,3.044-2.847h11.16v-19.321c0-26.644,17.856-40.677,40.988-40.677
		c11.769,0,24.35,3.661,31.451,9.356c1.623,1.423,2.232,3.864,1.015,6.102l-10.146,18.101c-1.421,2.644-3.247,3.051-5.275,2.034
		c-2.232-1.22-5.479-2.644-9.334-2.644c-5.479,0-11.77,3.254-11.77,12.407v14.644h68.99
		C806.944,139.478,808.771,141.104,808.771,143.342z"/>
</g>
<g>
	<path fill="#1E1E1E" d="M379.466,103.529V87.512h-5.497c-1.018,0-1.934-1.021-1.934-2.041v-3.367c0-1.428,0-1.734,0.917-2.754
		c7.227-7.346,11.909-13.059,17.711-22.343c0.712-1.02,1.629-2.04,2.952-2.04h2.748c1.12,0,1.934,0.918,1.934,2.04v13.773h9.467
		c1.222,0,2.036,0.816,2.036,1.938v12.957c0,1.02-1.018,1.836-2.036,1.836h-6.209c-1.628,0-2.748-0.204-3.563-0.408v14.589
		c0,2.856,1.527,5.611,4.581,5.611c1.323,0,2.443-0.408,3.461-0.918c1.12-0.408,1.73-0.51,2.443,0.714l4.988,9.794
		c0.509,0.918,0.102,1.53-0.712,2.244c-3.257,2.755-8.652,4.489-14.047,4.489C387.711,123.627,379.466,116.588,379.466,103.529z"/>
	<path fill="#1E1E1E" d="M463.235,76.902l-6.413,10.508c-0.509,1.122-1.832,1.224-2.748,0.714c-1.629-0.816-3.767-1.938-6.209-1.938
		c-3.665,0-6.515,2.041-7.838,5.305v29.28c0,1.123-0.916,2.041-1.934,2.041h-14.76c-1.12,0-1.934-0.918-1.934-2.041V72.719
		c0-1.021,0.814-1.938,1.833-1.938h14.861c1.222,0,1.934,0.714,1.934,1.938v4.489c3.054-3.979,7.329-7.142,13.233-7.142
		c4.275,0,7.329,1.632,9.161,3.265C463.744,74.454,464.05,75.474,463.235,76.902z"/>
	<path fill="#1E1E1E" d="M466.793,108.63c0-10.61,7.329-16.731,29.316-18.568c0-4.285-3.054-4.999-6.82-4.999
		c-4.275,0-8.855,1.428-12.418,3.469c-1.323,0.612-2.443,0.102-2.952-1.122l-3.257-8.672c-0.407-1.326-0.102-2.448,1.425-3.265
		c4.988-2.754,12.215-5.407,20.868-5.407c11.4,0,21.986,4.999,21.682,16.731c-0.306,10.712-0.509,22.955,1.018,33.667
		c0.102,1.225-0.61,2.347-2.036,2.347h-10.789c-1.527,0-3.665-2.754-4.988-5.713c-3.563,3.979-7.736,6.529-14.557,6.529
		C472.494,123.627,466.793,117.914,466.793,108.63z M495.906,106.488v-4.999c-8.449,0.408-11.91,2.041-11.91,5.407
		c0,2.041,1.425,3.367,3.868,3.367C491.122,110.263,493.769,108.732,495.906,106.488z"/>
	<path fill="#1E1E1E" d="M523.284,96.796c0-16.017,13.131-26.729,27.483-26.729c7.533,0,13.233,2.653,18.221,7.244
		c0.916,0.918,0.814,1.938,0.204,2.856l-6.21,8.162c-1.018,1.224-2.341,1.122-3.766,0.102c-2.443-1.836-4.988-2.652-7.533-2.652
		c-6.819,0-11.4,4.795-11.4,11.018c0,6.325,4.581,11.12,11.4,11.12c2.647,0,5.09-0.918,7.533-2.652
		c1.526-1.021,2.85-1.123,3.766,0.102l6.21,8.162c0.712,0.918,0.814,1.938-0.204,2.856c-4.886,4.591-10.688,7.243-18.221,7.243
		C536.415,123.627,523.284,112.915,523.284,96.796z"/>
	<path fill="#1E1E1E" d="M632.604,122.811h-14.964c-1.119,0-1.628-0.204-2.545-1.224l-16.795-18.772v18.058
		c0,1.224-0.713,1.938-1.935,1.938h-14.657c-1.323,0-1.935-0.714-1.935-1.938V55.886c0-6.325-1.323-8.366-1.323-10.61
		c0-1.122,0.611-2.04,1.935-2.04h12.112c3.868,0,5.803,1.836,5.803,5.713v39.074l14.556-16.017c0.814-0.816,1.527-1.224,2.646-1.224
		h14.048c2.748,0,3.664,2.652,1.934,4.693l-17.915,19.894l21.071,23.057C636.269,120.362,635.047,122.811,632.604,122.811z"/>
</g>
</svg>
