<?xml version="1.0" encoding="utf-8"?>
<!-- Generator: Adobe Illustrator 16.0.0, SVG Export Plug-In . SVG Version: 6.00 Build 0)  -->
<!DOCTYPE svg PUBLIC "-//W3C//DTD SVG 1.1//EN" "http://www.w3.org/Graphics/SVG/1.1/DTD/svg11.dtd">
<svg version="1.1" id="Layer_1" xmlns="http://www.w3.org/2000/svg" xmlns:xlink="http://www.w3.org/1999/xlink" x="0px" y="0px"
	 width="323.593px" height="290.593px" viewBox="0 0 323.593 290.593" enable-background="new 0 0 323.593 290.593"
	 xml:space="preserve">
<g>
	<g>
		<radialGradient id="SVGID_1_" cx="9.0166" cy="21.2412" r="416.6692" gradientUnits="userSpaceOnUse">
			<stop  offset="0" style="stop-color:#FFFFFF"/>
			<stop  offset="0.5" style="stop-color:#18A058"/>
			<stop  offset="1" style="stop-color:#18A058"/>
		</radialGradient>
		<path fill-rule="evenodd" clip-rule="evenodd" fill="url(#SVGID_1_)" d="M256.853,107.139c12.008-1.181,23.866-0.542,35.627,1.524
			c-25.44-17.959-54.965-28.49-90.738-27.211c-9.007-8.709-20.768-15.254-35.676-19.337c9.203,4.724,17.271,10.48,24.111,17.172
			L178.37,76.04c6.149,4.773,11.659,10.236,16.681,16.239c-5.953-3.986-12.549-7.283-19.979-8.318
			c-15.548,7.923-40.939,9.745-44.483,22.39c-10.531,37.201-31.197,39.907-54.176,48.862
			c38.332,46.057,107.764-40.743,171.191-0.787c-16.583-0.787-29.723,3.396-40.596,10.924c35.575,3.051,56.489,22.783,66.676,54.673
			c-9.055-7.776-19.143-13.388-31.051-15.403c16.927,23.47,14.566,45.71,1.182,62.196c28.195-7.331,49.553-27.111,61.658-52.161
			c8.363-17.174,12.348-36.854,11.264-56.686C306.06,133.464,279.883,116.537,256.853,107.139z M147.91,123.082l-16.238,8.316
			l5.757-13.287l0.884,2.953l19.042-7.48L147.91,123.082z"/>
		<radialGradient id="SVGID_2_" cx="80.1831" cy="33.3682" r="138.2406" gradientUnits="userSpaceOnUse">
			<stop  offset="0" style="stop-color:#FFFFFF"/>
			<stop  offset="0.5" style="stop-color:#18A058"/>
			<stop  offset="1" style="stop-color:#18A058"/>
		</radialGradient>
		<path fill-rule="evenodd" clip-rule="evenodd" fill="url(#SVGID_2_)" d="M136.64,77.515c7.185,0.05,15.354,2.461,20.272,5.61
			l-9.153-0.049c3.839,2.067,7.038,4.577,9.745,7.381c6.15-1.919,12.398-3.887,17.566-6.496
			c-13.385-6.544-27.016-9.742-40.891-9.447L136.64,77.515z"/>
		<linearGradient id="SVGID_3_" gradientUnits="userSpaceOnUse" x1="343.8999" y1="214.1284" x2="251.8248" y2="106.5886">
			<stop  offset="0" style="stop-color:#0C7A43"/>
			<stop  offset="1" style="stop-color:#0C7A43;stop-opacity:0"/>
		</linearGradient>
		<path fill-rule="evenodd" clip-rule="evenodd" fill="url(#SVGID_3_)" d="M256.853,107.139c12.008-1.181,23.866-0.542,35.627,1.524
			c-25.44-17.959-54.965-28.49-90.738-27.211c8.709,8.415,14.811,18.896,18.648,31.148c30.41,7.184,57.032,22.537,78.979,48.126
			c-13.483-6.005-25.98-8.71-37.595-8.513c24.85,15.547,39.121,32.23,43.697,62.442c8.363-17.174,12.348-36.854,11.264-56.686
			C306.06,133.464,279.883,116.537,256.853,107.139z"/>
		<linearGradient id="SVGID_4_" gradientUnits="userSpaceOnUse" x1="374.8652" y1="158.0054" x2="95.373" y2="158.0054">
			<stop  offset="0" style="stop-color:#EF8200"/>
			<stop  offset="1" style="stop-color:#EF8200;stop-opacity:0"/>
		</linearGradient>
		<path fill-rule="evenodd" clip-rule="evenodd" fill="url(#SVGID_4_)" d="M76.412,155.213
			c29.032,43.992,90.345-11.957,145.947,2.412c7.43-2.461,15.795-3.642,25.244-3.199C184.175,114.47,114.744,201.27,76.412,155.213z
			"/>
		<linearGradient id="SVGID_5_" gradientUnits="userSpaceOnUse" x1="337.9067" y1="271.9482" x2="194.5198" y2="150.1746">
			<stop  offset="0" style="stop-color:#EF8200"/>
			<stop  offset="1" style="stop-color:#EF8200;stop-opacity:0"/>
		</linearGradient>
		<path fill-rule="evenodd" clip-rule="evenodd" fill="url(#SVGID_5_)" d="M226.394,169.09c-6.498,1.871-12.351,4.773-17.666,8.465
			c29.675,2.508,53.393,19.338,64.955,42.468C265.513,194.432,250.457,176.668,226.394,169.09z"/>
		<linearGradient id="SVGID_6_" gradientUnits="userSpaceOnUse" x1="243.6196" y1="321.7271" x2="243.6196" y2="196.2153">
			<stop  offset="0" style="stop-color:#EF8200"/>
			<stop  offset="1" style="stop-color:#EF8200;stop-opacity:0"/>
		</linearGradient>
		<path fill-rule="evenodd" clip-rule="evenodd" fill="url(#SVGID_6_)" d="M232.643,213.571
			c15.108,16.785,18.501,34.153,13.926,49.506c8.709-12.844,11.021-28.687,3.495-45.664
			C244.55,215.247,238.796,213.918,232.643,213.571z"/>
	</g>
	<g>
		<radialGradient id="SVGID_7_" cx="-149.1309" cy="-47.2891" r="494.7033" gradientUnits="userSpaceOnUse">
			<stop  offset="0" style="stop-color:#FFFFFF"/>
			<stop  offset="0.5" style="stop-color:#18A058"/>
			<stop  offset="1" style="stop-color:#0C7A43"/>
		</radialGradient>
		<path fill-rule="evenodd" clip-rule="evenodd" fill="url(#SVGID_7_)" d="M237.269,53.404C202.136,39.233,165.822,29.49,148.647,4
			c-3.887,16.337-2.017,31.394,7.184,44.926C102.638,36.526,50.281,53.798,5.355,9.265c0.05,70.319,19.044,115.784,57.377,153.184
			c58.261,56.833-14.764,63.574-38.825,16.336c18.304,70.221,105.45,124.396,168.781,96.445
			c40.939-18.059,28.441-72.63-9.695-85.522c-52.552-17.764-87.979,1.576-106.581-34.494c22.979-8.956,43.645-11.661,54.176-48.862
			c1.822-6.594,9.595-10.236,18.797-13.335L134.18,74.514c13.875-0.295,27.506,2.903,40.891,9.447l-9.005-21.846
			c14.908,4.083,26.669,10.628,35.676,19.337c35.773-1.279,65.298,9.252,90.738,27.211c-11.761-2.067-23.619-2.706-35.627-1.524
			c23.03,9.398,49.207,26.325,59.883,50.83C314.476,116.635,290.216,74.76,237.269,53.404z"/>
		<g>
			<linearGradient id="SVGID_8_" gradientUnits="userSpaceOnUse" x1="0.2231" y1="-57.0513" x2="91.5977" y2="51.1924">
				<stop  offset="0" style="stop-color:#FFFFFF"/>
				<stop  offset="1" style="stop-color:#FFFFFF;stop-opacity:0"/>
			</linearGradient>
			<path fill-rule="evenodd" clip-rule="evenodd" fill="url(#SVGID_8_)" d="M84.137,94.442
				c26.227-4.231,68.348-46.648,82.865-42.415C110.021,33.771,53.431,56.947,5.355,9.265C22.43,64.426,46.05,100.593,84.137,94.442z
				"/>
			<linearGradient id="SVGID_9_" gradientUnits="userSpaceOnUse" x1="111.5391" y1="-34.3735" x2="189.5584" y2="38.022">
				<stop  offset="0" style="stop-color:#FFFFFF"/>
				<stop  offset="1" style="stop-color:#FFFFFF;stop-opacity:0"/>
			</linearGradient>
			<path fill-rule="evenodd" clip-rule="evenodd" fill="url(#SVGID_9_)" d="M148.647,4c4.084,39.809,44.435,51.274,74.399,43.844
				C192.688,36.33,163.508,26.045,148.647,4z"/>
		</g>
		<g>
			<linearGradient id="SVGID_10_" gradientUnits="userSpaceOnUse" x1="157.4741" y1="153.5581" x2="157.4741" y2="263.6047">
				<stop  offset="0" style="stop-color:#0C7A43"/>
				<stop  offset="1" style="stop-color:#0C7A43;stop-opacity:0"/>
			</linearGradient>
			<path fill-rule="evenodd" clip-rule="evenodd" fill="url(#SVGID_10_)" d="M182.993,189.708
				c-22.046-7.479-41.088-8.365-57.129-9.595c95.854,13.976,56.244,115.146-28.983,86.803c30.754,16.385,65.938,21.504,95.808,8.314
				C233.627,257.171,221.129,202.6,182.993,189.708z"/>
			<linearGradient id="SVGID_11_" gradientUnits="userSpaceOnUse" x1="262.5801" y1="109.1938" x2="47.4953" y2="109.1939">
				<stop  offset="0" style="stop-color:#0C7A43"/>
				<stop  offset="1" style="stop-color:#0C7A43;stop-opacity:0"/>
			</linearGradient>
			<path fill-rule="evenodd" clip-rule="evenodd" fill="url(#SVGID_11_)" d="M143.037,85.291l6.348,7.725
				c-9.202,3.099-16.975,6.741-18.797,13.335c-9.841,34.888-28.639,39.416-49.944,47.289c-1.821-2.363-3.545-5.069-5.168-8.168
				c23.027-8.957,43.697-11.662,54.176-48.863C131.128,91.392,136.345,87.997,143.037,85.291z M133.294,64.77l8.07,9.892
				c11.416,0.737,22.637,3.888,33.706,9.299L170.3,72.447C158.145,67.133,145.842,64.476,133.294,64.77z"/>
			<linearGradient id="SVGID_12_" gradientUnits="userSpaceOnUse" x1="19.5601" y1="75.646" x2="331.6405" y2="75.646">
				<stop  offset="0" style="stop-color:#0C7A43"/>
				<stop  offset="1" style="stop-color:#0C7A43;stop-opacity:0"/>
			</linearGradient>
			<path fill-rule="evenodd" clip-rule="evenodd" fill="url(#SVGID_12_)" d="M291.593,98.921
				c-25.488-17.96-54.961-28.491-90.785-27.212c-9.006-8.708-20.768-15.253-35.675-19.338l4.427,10.776
				c13.284,4.133,23.914,10.284,32.182,18.305c27.063-0.983,50.535,4.823,71.398,15.451
				C279.292,97.15,285.443,97.838,291.593,98.921z"/>
			<linearGradient id="SVGID_13_" gradientUnits="userSpaceOnUse" x1="210.9189" y1="132.2588" x2="311.0825" y2="132.2588">
				<stop  offset="0" style="stop-color:#0C7A43"/>
				<stop  offset="1" style="stop-color:#0C7A43;stop-opacity:0"/>
			</linearGradient>
			<path fill-rule="evenodd" clip-rule="evenodd" fill="url(#SVGID_13_)" d="M274.913,106.695
				c-5.954-0.295-12.006-0.147-18.06,0.444c23.03,9.398,49.207,26.325,59.883,50.83
				C315.458,134.941,293.857,117.571,274.913,106.695z"/>
			<linearGradient id="SVGID_14_" gradientUnits="userSpaceOnUse" x1="12.1738" y1="163.8066" x2="122.5229" y2="234.0935">
				<stop  offset="0" style="stop-color:#0C7A43"/>
				<stop  offset="1" style="stop-color:#0C7A43;stop-opacity:0"/>
			</linearGradient>
			<path fill-rule="evenodd" clip-rule="evenodd" fill="url(#SVGID_14_)" d="M62.732,162.449
				c58.261,56.833-14.764,63.574-38.825,16.336C61.401,271.196,158.686,247.574,62.732,162.449z"/>
		</g>
	</g>
</g>
</svg>
